<svg id="visual" viewBox="0 0 960 540" width="960" height="540" xmlns="http://www.w3.org/2000/svg" xmlns:xlink="http://www.w3.org/1999/xlink" version="1.1"><rect width="960" height="540" fill="#000d16"></rect><g><g transform="translate(846 309)"><path d="M0 -42.1L42.1 0L0 42.1L-42.1 0Z" fill="#ffed6c"></path></g><g transform="translate(220 200)"><path d="M0 -15L15 0L0 15L-15 0Z" fill="#ffed6c"></path></g><g transform="translate(957 399)"><path d="M0 -29L29 0L0 29L-29 0Z" fill="#ffed6c"></path></g><g transform="translate(366 422)"><path d="M0 -15L15 0L0 15L-15 0Z" fill="#ffed6c"></path></g><g transform="translate(524 88)"><path d="M0 -35L35 0L0 35L-35 0Z" fill="#ffed6c"></path></g><g transform="translate(805 48)"><path d="M0 -37L37 0L0 37L-37 0Z" fill="#ffed6c"></path></g><g transform="translate(81 406)"><path d="M0 -39L39 0L0 39L-39 0Z" fill="#ffed6c"></path></g><g transform="translate(940 497)"><path d="M0 -18L18 0L0 18L-18 0Z" fill="#ffed6c"></path></g><g transform="translate(611 206)"><path d="M0 -35L35 0L0 35L-35 0Z" fill="#ffed6c"></path></g><g transform="translate(811 521)"><path d="M0 -22L22 0L0 22L-22 0Z" fill="#ffed6c"></path></g></g></svg>